<?xml version="1.0" encoding="UTF-8" standalone="no"?>
<!DOCTYPE svg PUBLIC "-//W3C//DTD SVG 1.1//EN"
 "http://www.w3.org/Graphics/SVG/1.1/DTD/svg11.dtd">
<!-- Generated by graphviz version 11.0.0 (20240428.1522)
 -->
<!-- Title: Architecture Diagram Pages: 1 -->
<svg width="1187pt" height="723pt"
 viewBox="0.00 0.00 1186.80 723.00" xmlns="http://www.w3.org/2000/svg" xmlns:xlink="http://www.w3.org/1999/xlink">
<g id="graph0" class="graph" transform="scale(1 1) rotate(0) translate(144 579)">
<title>Architecture Diagram</title>
<text text-anchor="middle" x="449.4" y="-6" font-family="Sans-Serif" font-size="20.00" fill="#2d3436">Architecture Diagram</text>
<g id="clust1" class="cluster">
<title>cluster_On Premise Server</title>
<path fill="#e5f5fd" stroke="#aeb6be" d="M150.8,-37C150.8,-37 878.8,-37 878.8,-37 884.8,-37 890.8,-43 890.8,-49 890.8,-49 890.8,-415 890.8,-415 890.8,-421 884.8,-427 878.8,-427 878.8,-427 150.8,-427 150.8,-427 144.8,-427 138.8,-421 138.8,-415 138.8,-415 138.8,-49 138.8,-49 138.8,-43 144.8,-37 150.8,-37"/>
<text text-anchor="middle" x="197.42" y="-411.6" font-family="Sans-Serif" font-size="12.00" fill="#2d3436">On Premise Server</text>
</g>
<g id="clust2" class="cluster">
<title>cluster_Jupyter Environment</title>
<path fill="#ebf3e7" stroke="#aeb6be" d="M158.8,-163C158.8,-163 406.4,-163 406.4,-163 412.4,-163 418.4,-169 418.4,-175 418.4,-175 418.4,-324 418.4,-324 418.4,-330 412.4,-336 406.4,-336 406.4,-336 158.8,-336 158.8,-336 152.8,-336 146.8,-330 146.8,-324 146.8,-324 146.8,-175 146.8,-175 146.8,-169 152.8,-163 158.8,-163"/>
<text text-anchor="middle" x="209.55" y="-320.6" font-family="Sans-Serif" font-size="12.00" fill="#2d3436">Jupyter Environment</text>
</g>
<g id="clust3" class="cluster">
<title>cluster_Containers</title>
<path fill="#ebf3e7" stroke="#aeb6be" d="M623.2,-45C623.2,-45 870.8,-45 870.8,-45 876.8,-45 882.8,-51 882.8,-57 882.8,-57 882.8,-386 882.8,-386 882.8,-392 876.8,-398 870.8,-398 870.8,-398 623.2,-398 623.2,-398 617.2,-398 611.2,-392 611.2,-386 611.2,-386 611.2,-57 611.2,-57 611.2,-51 617.2,-45 623.2,-45"/>
<text text-anchor="middle" x="648.45" y="-382.6" font-family="Sans-Serif" font-size="12.00" fill="#2d3436">Containers</text>
</g>
<!-- 2f34ae20022142bcbb004ba86930351f -->
<g id="node1" class="node">
<title>2f34ae20022142bcbb004ba86930351f</title>
<image xlink:href="/Users/joaocarvoli/miniconda3/envs/ml/lib/python3.10/site-packages/resources/onprem/client/user.png" width="100.8px" height="100.8px" preserveAspectRatio="xMinYMin meet" x="-1.42109e-14" y="-289.4"/>
</g>
<!-- 193b1656ac574ef5939165842a5a13f9 -->
<g id="node5" class="node">
<title>193b1656ac574ef5939165842a5a13f9</title>
<image xlink:href="./assets/jupyter-logo.png" width="100.8px" height="116.83px" preserveAspectRatio="xMinYMin meet" x="154.8" y="-297.415"/>
<text text-anchor="middle" x="205.2" y="-171.75" font-family="Sans-Serif" font-size="13.00" fill="#2d3436">Jupyter Notebook</text>
</g>
<!-- 2f34ae20022142bcbb004ba86930351f&#45;&gt;193b1656ac574ef5939165842a5a13f9 -->
<g id="edge3" class="edge">
<title>2f34ae20022142bcbb004ba86930351f&#45;&gt;193b1656ac574ef5939165842a5a13f9</title>
<path fill="none" stroke="#7b8894" d="M100.66,-239C100.66,-239 143.41,-239 143.41,-239"/>
<polygon fill="#7b8894" stroke="#7b8894" points="143.41,-242.5 153.41,-239 143.41,-235.5 143.41,-242.5"/>
</g>
<!-- c40e632677dd4bf195c55c7d9b02ee09 -->
<g id="node2" class="node">
<title>c40e632677dd4bf195c55c7d9b02ee09</title>
<image xlink:href="/Users/joaocarvoli/miniconda3/envs/ml/lib/python3.10/site-packages/resources/aws/ml/sagemaker.png" width="100.8px" height="100.8px" preserveAspectRatio="xMinYMin meet" x="619.2" y="-177.4"/>
<text text-anchor="middle" x="669.6" y="-59.75" font-family="Sans-Serif" font-size="13.00" fill="#2d3436">drfc&#45;image</text>
</g>
<!-- a9fa936ca8e14132b3da3f3ff89f06b4 -->
<g id="node3" class="node">
<title>a9fa936ca8e14132b3da3f3ff89f06b4</title>
<image xlink:href="/Users/joaocarvoli/miniconda3/envs/ml/lib/python3.10/site-packages/resources/aws/robotics/robomaker.png" width="100.8px" height="100.8px" preserveAspectRatio="xMinYMin meet" x="774" y="-171.4"/>
<text text-anchor="middle" x="824.4" y="-53.75" font-family="Sans-Serif" font-size="13.00" fill="#2d3436">drfc&#45;image</text>
</g>
<!-- c40e632677dd4bf195c55c7d9b02ee09&#45;&gt;a9fa936ca8e14132b3da3f3ff89f06b4 -->
<g id="edge1" class="edge">
<title>c40e632677dd4bf195c55c7d9b02ee09&#45;&gt;a9fa936ca8e14132b3da3f3ff89f06b4</title>
<path fill="none" stroke="firebrick" stroke-dasharray="5,2" d="M719.86,-124C737.25,-124 756.74,-124 774.13,-124"/>
</g>
<!-- 831599de5c1c4fae87c8031ba3dc0b45 -->
<g id="node4" class="node">
<title>831599de5c1c4fae87c8031ba3dc0b45</title>
<image xlink:href="./assets/minio-logo.png" width="100.8px" height="100.8px" preserveAspectRatio="xMinYMin meet" x="774" y="-351.4"/>
<text text-anchor="middle" x="824.4" y="-233.75" font-family="Sans-Serif" font-size="13.00" fill="#2d3436">Minio</text>
</g>
<!-- c40e632677dd4bf195c55c7d9b02ee09&#45;&gt;831599de5c1c4fae87c8031ba3dc0b45 -->
<g id="edge2" class="edge">
<title>c40e632677dd4bf195c55c7d9b02ee09&#45;&gt;831599de5c1c4fae87c8031ba3dc0b45</title>
<path fill="none" stroke="firebrick" stroke-dasharray="5,2" d="M669.8,-195.33C669.8,-226.91 669.8,-257.53 669.8,-257.53 669.8,-257.53 729.06,-257.53 774.21,-257.53"/>
</g>
<!-- d6e39de26b774f20b7b71fdcee9f1029 -->
<g id="node6" class="node">
<title>d6e39de26b774f20b7b71fdcee9f1029</title>
<image xlink:href="/Users/joaocarvoli/miniconda3/envs/ml/lib/python3.10/site-packages/resources/programming/language/python.png" width="100.8px" height="100.8px" preserveAspectRatio="xMinYMin meet" x="309.6" y="-289.4"/>
<text text-anchor="middle" x="360" y="-171.75" font-family="Sans-Serif" font-size="13.00" fill="#2d3436">Built modules</text>
</g>
<!-- 193b1656ac574ef5939165842a5a13f9&#45;&gt;d6e39de26b774f20b7b71fdcee9f1029 -->
<g id="edge4" class="edge">
<title>193b1656ac574ef5939165842a5a13f9&#45;&gt;d6e39de26b774f20b7b71fdcee9f1029</title>
<path fill="none" stroke="#7b8894" d="M255.46,-239C255.46,-239 298.21,-239 298.21,-239"/>
<polygon fill="#7b8894" stroke="#7b8894" points="298.21,-242.5 308.21,-239 298.21,-235.5 298.21,-242.5"/>
</g>
<!-- 6fcf4c54186741bea83ddaf3039037ca -->
<g id="node7" class="node">
<title>6fcf4c54186741bea83ddaf3039037ca</title>
<image xlink:href="/Users/joaocarvoli/miniconda3/envs/ml/lib/python3.10/site-packages/resources/onprem/container/docker.png" width="100.8px" height="100.8px" preserveAspectRatio="xMinYMin meet" x="464.4" y="-289.4"/>
</g>
<!-- d6e39de26b774f20b7b71fdcee9f1029&#45;&gt;6fcf4c54186741bea83ddaf3039037ca -->
<g id="edge5" class="edge">
<title>d6e39de26b774f20b7b71fdcee9f1029&#45;&gt;6fcf4c54186741bea83ddaf3039037ca</title>
<path fill="none" stroke="#7b8894" d="M410.26,-239C410.26,-239 453.01,-239 453.01,-239"/>
<polygon fill="#7b8894" stroke="#7b8894" points="453.01,-242.5 463.01,-239 453.01,-235.5 453.01,-242.5"/>
</g>
<!-- 6fcf4c54186741bea83ddaf3039037ca&#45;&gt;c40e632677dd4bf195c55c7d9b02ee09 -->
<g id="edge6" class="edge">
<title>6fcf4c54186741bea83ddaf3039037ca&#45;&gt;c40e632677dd4bf195c55c7d9b02ee09</title>
<path fill="none" stroke="#7b8894" d="M565.06,-183C565.06,-183 607.81,-183 607.81,-183"/>
<polygon fill="#7b8894" stroke="#7b8894" points="607.81,-186.5 617.81,-183 607.81,-179.5 607.81,-186.5"/>
</g>
<!-- 6fcf4c54186741bea83ddaf3039037ca&#45;&gt;a9fa936ca8e14132b3da3f3ff89f06b4 -->
<g id="edge7" class="edge">
<title>6fcf4c54186741bea83ddaf3039037ca&#45;&gt;a9fa936ca8e14132b3da3f3ff89f06b4</title>
<path fill="none" stroke="#7b8894" d="M564.95,-214C652.69,-214 824.8,-214 824.8,-214 824.8,-214 824.8,-200.59 824.8,-200.59"/>
<polygon fill="#7b8894" stroke="#7b8894" points="828.3,-200.59 824.8,-190.59 821.3,-200.59 828.3,-200.59"/>
</g>
<!-- 6fcf4c54186741bea83ddaf3039037ca&#45;&gt;831599de5c1c4fae87c8031ba3dc0b45 -->
<g id="edge8" class="edge">
<title>6fcf4c54186741bea83ddaf3039037ca&#45;&gt;831599de5c1c4fae87c8031ba3dc0b45</title>
<path fill="none" stroke="#7b8894" d="M564.89,-282.47C564.89,-282.47 762.61,-282.47 762.61,-282.47"/>
<polygon fill="#7b8894" stroke="#7b8894" points="762.61,-285.97 772.61,-282.47 762.61,-278.97 762.61,-285.97"/>
</g>
</g>
</svg>
